<?xml version="1.0" encoding="UTF-8" standalone="no"?><!DOCTYPE svg PUBLIC "-//W3C//DTD SVG 1.1//EN" "http://www.w3.org/Graphics/SVG/1.1/DTD/svg11.dtd"><svg width="100%" height="100%" viewBox="0 0 919 972" version="1.1" xmlns="http://www.w3.org/2000/svg" xmlns:xlink="http://www.w3.org/1999/xlink" xml:space="preserve" xmlns:serif="http://www.serif.com/" style="fill-rule:evenodd;clip-rule:evenodd;"><g><g><path d="M56.955,120.563c0,-35.618 21.152,-64.473 47.261,-64.473l710.318,0c26.109,0 47.261,28.855 47.261,64.473l-0,730.749c-0,35.618 -21.152,64.473 -47.261,64.473l-710.318,-0c-26.109,-0 -47.261,-28.855 -47.261,-64.473l0,-730.749Z" style="stroke:#fff;stroke-width:26.75px;"/><path d="M95.64,120.349c-0,-12.814 14.004,-23.208 31.268,-23.208l661.159,-0c17.265,-0 31.269,10.394 31.269,23.208l-0,263.02c-0,12.815 -14.004,23.209 -31.269,23.209l-661.159,-0c-17.264,-0 -31.268,-10.394 -31.268,-23.209l-0,-263.02Z" style="fill:#e574aa;"/><g transform="matrix(0.0242208,0,0,0.0174122,88.9616,517.434)"><g transform="matrix(6266,0,0,6266,-0.710938,0)"><path d="M0.588,-0.251l0.095,0.024c-0.02,0.078 -0.056,0.137 -0.108,0.178c-0.051,0.041 -0.114,0.061 -0.189,0.061c-0.077,0 -0.14,-0.015 -0.188,-0.047c-0.048,-0.031 -0.085,-0.077 -0.11,-0.136c-0.026,-0.06 -0.038,-0.124 -0.038,-0.192c-0,-0.075 0.014,-0.14 0.043,-0.195c0.028,-0.056 0.069,-0.098 0.121,-0.127c0.053,-0.029 0.111,-0.043 0.174,-0.043c0.071,-0 0.132,0.018 0.18,0.055c0.049,0.036 0.083,0.087 0.102,0.153l-0.093,0.022c-0.016,-0.052 -0.041,-0.09 -0.072,-0.113c-0.032,-0.024 -0.071,-0.036 -0.119,-0.036c-0.055,0 -0.101,0.013 -0.138,0.04c-0.037,0.026 -0.063,0.061 -0.078,0.106c-0.015,0.044 -0.023,0.09 -0.023,0.137c0,0.061 0.009,0.114 0.027,0.16c0.018,0.045 0.045,0.079 0.083,0.101c0.037,0.023 0.078,0.034 0.121,0.034c0.053,0 0.098,-0.015 0.135,-0.046c0.037,-0.03 0.062,-0.076 0.075,-0.136Z" style="fill:#e574aa;fill-rule:nonzero;"/></g><g transform="matrix(6266,0,0,6266,4522.97,0)"><path d="M0.547,-0.716l0.095,0l-0,0.414c-0,0.072 -0.009,0.129 -0.025,0.171c-0.016,0.042 -0.045,0.077 -0.088,0.103c-0.042,0.027 -0.098,0.04 -0.167,0.04c-0.067,0 -0.122,-0.011 -0.165,-0.034c-0.042,-0.024 -0.073,-0.057 -0.091,-0.101c-0.018,-0.044 -0.027,-0.103 -0.027,-0.179l-0,-0.414l0.094,0l0,0.413c0,0.062 0.006,0.108 0.018,0.138c0.011,0.029 0.031,0.052 0.059,0.068c0.028,0.016 0.063,0.024 0.104,0.024c0.069,-0 0.119,-0.016 0.148,-0.048c0.03,-0.031 0.045,-0.092 0.045,-0.182l-0,-0.413Z" style="fill:#e574aa;fill-rule:nonzero;"/></g><g transform="matrix(6266,0,0,6266,9046.65,0)"><path d="M0.079,-0l-0,-0.716l0.317,0c0.064,0 0.112,0.007 0.146,0.019c0.033,0.013 0.059,0.036 0.079,0.069c0.02,0.032 0.03,0.068 0.03,0.107c-0,0.051 -0.017,0.094 -0.049,0.129c-0.033,0.035 -0.084,0.057 -0.153,0.066c0.025,0.012 0.044,0.024 0.057,0.036c0.028,0.025 0.054,0.057 0.079,0.095l0.124,0.195l-0.119,-0l-0.094,-0.149c-0.028,-0.043 -0.051,-0.076 -0.069,-0.099c-0.018,-0.022 -0.034,-0.038 -0.048,-0.047c-0.014,-0.01 -0.028,-0.016 -0.043,-0.019c-0.011,-0.003 -0.028,-0.004 -0.053,-0.004l-0.11,0l0,0.318l-0.094,-0Zm0.094,-0.4l0.204,0c0.043,0 0.077,-0.004 0.102,-0.013c0.024,-0.009 0.042,-0.024 0.055,-0.043c0.013,-0.02 0.019,-0.041 0.019,-0.065c0,-0.033 -0.012,-0.061 -0.037,-0.083c-0.024,-0.022 -0.063,-0.033 -0.116,-0.033l-0.227,0l0,0.237Z" style="fill:#e574aa;fill-rule:nonzero;"/></g><g transform="matrix(6266,0,0,6266,13570.3,0)"><path d="M0.079,-0l-0,-0.716l0.317,0c0.064,0 0.112,0.007 0.146,0.019c0.033,0.013 0.059,0.036 0.079,0.069c0.02,0.032 0.03,0.068 0.03,0.107c-0,0.051 -0.017,0.094 -0.049,0.129c-0.033,0.035 -0.084,0.057 -0.153,0.066c0.025,0.012 0.044,0.024 0.057,0.036c0.028,0.025 0.054,0.057 0.079,0.095l0.124,0.195l-0.119,-0l-0.094,-0.149c-0.028,-0.043 -0.051,-0.076 -0.069,-0.099c-0.018,-0.022 -0.034,-0.038 -0.048,-0.047c-0.014,-0.01 -0.028,-0.016 -0.043,-0.019c-0.011,-0.003 -0.028,-0.004 -0.053,-0.004l-0.11,0l0,0.318l-0.094,-0Zm0.094,-0.4l0.204,0c0.043,0 0.077,-0.004 0.102,-0.013c0.024,-0.009 0.042,-0.024 0.055,-0.043c0.013,-0.02 0.019,-0.041 0.019,-0.065c0,-0.033 -0.012,-0.061 -0.037,-0.083c-0.024,-0.022 -0.063,-0.033 -0.116,-0.033l-0.227,0l0,0.237Z" style="fill:#e574aa;fill-rule:nonzero;"/></g><g transform="matrix(6266,0,0,6266,18094,0)"><path d="M0.079,-0l0,-0.716l0.518,0l-0,0.085l-0.423,-0l-0,0.219l0.396,-0l-0,0.084l-0.396,-0l-0,0.244l0.439,-0l0,0.084l-0.534,0Z" style="fill:#e574aa;fill-rule:nonzero;"/></g><g transform="matrix(6266,0,0,6266,22272,0)"><path d="M0.076,-0l0,-0.716l0.097,0l0.376,0.562l0,-0.562l0.091,0l0,0.716l-0.097,-0l-0.376,-0.563l-0,0.563l-0.091,-0Z" style="fill:#e574aa;fill-rule:nonzero;"/></g><g transform="matrix(6266,0,0,6266,26795.7,0)"><path d="M0.259,-0l0,-0.631l-0.236,-0l0,-0.085l0.568,0l-0,0.085l-0.237,-0l0,0.631l-0.095,-0Z" style="fill:#e574aa;fill-rule:nonzero;"/></g><g transform="matrix(6266,0,0,6266,1213.94,6266)"><path d="M0.282,-0l-0.278,-0.716l0.103,0l0.186,0.52c0.015,0.042 0.027,0.081 0.038,0.117c0.011,-0.039 0.023,-0.078 0.038,-0.117l0.194,-0.52l0.096,0l-0.28,0.716l-0.097,-0Z" style="fill:#e574aa;fill-rule:nonzero;"/></g><g transform="matrix(6266,0,0,6266,5391.89,6266)"><path d="M0.079,-0l0,-0.716l0.518,0l-0,0.085l-0.423,-0l-0,0.219l0.396,-0l-0,0.084l-0.396,-0l-0,0.244l0.439,-0l0,0.084l-0.534,0Z" style="fill:#e574aa;fill-rule:nonzero;"/></g><g transform="matrix(6266,0,0,6266,9569.84,6266)"><path d="M0.079,-0l-0,-0.716l0.317,0c0.064,0 0.112,0.007 0.146,0.019c0.033,0.013 0.059,0.036 0.079,0.069c0.02,0.032 0.03,0.068 0.03,0.107c-0,0.051 -0.017,0.094 -0.049,0.129c-0.033,0.035 -0.084,0.057 -0.153,0.066c0.025,0.012 0.044,0.024 0.057,0.036c0.028,0.025 0.054,0.057 0.079,0.095l0.124,0.195l-0.119,-0l-0.094,-0.149c-0.028,-0.043 -0.051,-0.076 -0.069,-0.099c-0.018,-0.022 -0.034,-0.038 -0.048,-0.047c-0.014,-0.01 -0.028,-0.016 -0.043,-0.019c-0.011,-0.003 -0.028,-0.004 -0.053,-0.004l-0.11,0l0,0.318l-0.094,-0Zm0.094,-0.4l0.204,0c0.043,0 0.077,-0.004 0.102,-0.013c0.024,-0.009 0.042,-0.024 0.055,-0.043c0.013,-0.02 0.019,-0.041 0.019,-0.065c0,-0.033 -0.012,-0.061 -0.037,-0.083c-0.024,-0.022 -0.063,-0.033 -0.116,-0.033l-0.227,0l0,0.237Z" style="fill:#e574aa;fill-rule:nonzero;"/></g><g transform="matrix(6266,0,0,6266,14093.5,6266)"><path d="M0.045,-0.23l0.089,-0.008c0.005,0.036 0.014,0.065 0.03,0.088c0.015,0.023 0.039,0.042 0.072,0.056c0.032,0.014 0.069,0.021 0.11,0.021c0.036,0 0.068,-0.005 0.095,-0.016c0.028,-0.011 0.049,-0.025 0.062,-0.044c0.014,-0.019 0.02,-0.039 0.02,-0.061c0,-0.023 -0.006,-0.042 -0.019,-0.059c-0.013,-0.017 -0.035,-0.031 -0.065,-0.042c-0.019,-0.008 -0.061,-0.02 -0.127,-0.035c-0.066,-0.016 -0.112,-0.031 -0.138,-0.045c-0.034,-0.018 -0.06,-0.04 -0.077,-0.067c-0.016,-0.026 -0.025,-0.056 -0.025,-0.089c0,-0.036 0.011,-0.07 0.031,-0.101c0.021,-0.031 0.05,-0.055 0.09,-0.072c0.039,-0.016 0.083,-0.024 0.131,-0.024c0.053,-0 0.1,0.009 0.141,0.026c0.04,0.017 0.071,0.042 0.093,0.075c0.022,0.033 0.034,0.071 0.035,0.113l-0.091,0.007c-0.004,-0.046 -0.021,-0.08 -0.049,-0.103c-0.028,-0.023 -0.07,-0.035 -0.125,-0.035c-0.057,0 -0.099,0.011 -0.125,0.032c-0.026,0.021 -0.039,0.046 -0.039,0.076c-0,0.026 0.009,0.047 0.027,0.063c0.019,0.017 0.066,0.034 0.143,0.051c0.077,0.018 0.13,0.033 0.159,0.046c0.041,0.019 0.072,0.044 0.092,0.073c0.02,0.03 0.03,0.063 0.03,0.102c-0,0.038 -0.011,0.074 -0.033,0.108c-0.022,0.033 -0.053,0.059 -0.094,0.078c-0.041,0.019 -0.087,0.028 -0.138,0.028c-0.065,0 -0.119,-0.009 -0.163,-0.028c-0.044,-0.019 -0.078,-0.047 -0.103,-0.085c-0.025,-0.038 -0.038,-0.081 -0.039,-0.129Z" style="fill:#e574aa;fill-rule:nonzero;"/></g><g transform="matrix(6266,0,0,6266,18271.5,6266)"><rect x="0.093" y="-0.716" width="0.095" height="0.716" style="fill:#e574aa;fill-rule:nonzero;"/></g><g transform="matrix(6266,0,0,6266,20010.9,6266)"><path d="M0.048,-0.349c0,-0.118 0.032,-0.211 0.096,-0.279c0.064,-0.067 0.146,-0.101 0.247,-0.101c0.066,0 0.126,0.016 0.179,0.048c0.053,0.031 0.093,0.075 0.121,0.132c0.028,0.056 0.042,0.12 0.042,0.192c-0,0.073 -0.015,0.138 -0.044,0.195c-0.029,0.057 -0.071,0.101 -0.125,0.13c-0.053,0.029 -0.111,0.044 -0.173,0.044c-0.068,0 -0.128,-0.016 -0.181,-0.049c-0.053,-0.032 -0.093,-0.077 -0.121,-0.133c-0.027,-0.056 -0.041,-0.116 -0.041,-0.179Zm0.098,0.002c-0,0.086 0.023,0.154 0.07,0.204c0.046,0.049 0.104,0.074 0.174,0.074c0.071,0 0.13,-0.025 0.176,-0.075c0.046,-0.05 0.069,-0.121 0.069,-0.213c0,-0.059 -0.01,-0.11 -0.029,-0.153c-0.02,-0.043 -0.049,-0.077 -0.087,-0.101c-0.038,-0.024 -0.08,-0.036 -0.127,-0.036c-0.067,0 -0.125,0.023 -0.173,0.069c-0.049,0.046 -0.073,0.123 -0.073,0.231Z" style="fill:#e574aa;fill-rule:nonzero;"/></g><g transform="matrix(6266,0,0,6266,24883.4,6266)"><path d="M0.076,-0l0,-0.716l0.097,0l0.376,0.562l0,-0.562l0.091,0l0,0.716l-0.097,-0l-0.376,-0.563l-0,0.563l-0.091,-0Z" style="fill:#e574aa;fill-rule:nonzero;"/></g></g><path d="M225.157,131.93l0,234.689l-66.355,0l0,-142.867l-22.426,0l-0,-50.165c11.56,-10.365 19.035,-24.251 22.426,-41.657l66.355,-0Z" style="fill-rule:nonzero;"/><rect x="247.739" y="303.84" width="49.709" height="62.779" style="fill-rule:nonzero;"/><path d="M412.972,366.032l-0.462,0c-15.106,0 -28.747,-3.276 -40.923,-9.827c-12.177,-6.552 -22.003,-15.353 -29.479,-26.403c-7.475,-11.05 -13.217,-23.42 -17.224,-37.11c-4.008,-13.69 -6.011,-27.967 -6.011,-42.831c-0,-14.863 2.003,-29.238 6.011,-43.124c4.007,-13.886 9.826,-26.5 17.456,-37.844c7.629,-11.343 17.533,-20.388 29.709,-27.135c12.177,-6.748 25.818,-10.219 40.923,-10.415l0.694,0c15.413,0 29.324,3.276 41.732,9.828c12.408,6.552 22.465,15.304 30.172,26.256c7.707,10.952 13.564,23.273 17.571,36.963c4.008,13.69 6.011,27.967 6.011,42.831c0,15.059 -2.08,29.532 -6.242,43.417c-4.162,13.886 -10.134,26.452 -17.918,37.697c-7.784,11.246 -17.918,20.291 -30.403,27.136c-12.485,6.845 -26.358,10.366 -41.617,10.561Zm-17.109,-145.507c-13.872,13.299 -20.808,26.403 -20.808,39.311c-0,7.04 2.004,13.787 6.011,20.241c5.857,8.215 12.87,12.322 21.04,12.322c9.556,-0 19.498,-5.281 29.825,-15.842c13.409,-12.517 20.114,-25.131 20.114,-37.844c0,-7.236 -2.158,-14.179 -6.473,-20.828c-5.857,-9.192 -12.716,-13.788 -20.577,-13.788c-8.17,-0 -17.88,5.476 -29.132,16.428Z" style="fill-rule:nonzero;"/><rect x="530.346" y="303.84" width="49.709" height="62.779" style="fill-rule:nonzero;"/><path d="M695.58,366.032l-0.463,0c-15.105,0 -28.746,-3.276 -40.922,-9.827c-12.177,-6.552 -22.003,-15.353 -29.479,-26.403c-7.475,-11.05 -13.217,-23.42 -17.224,-37.11c-4.008,-13.69 -6.012,-27.967 -6.012,-42.831c0,-14.863 2.004,-29.238 6.012,-43.124c4.007,-13.886 9.826,-26.5 17.455,-37.844c7.63,-11.343 17.533,-20.388 29.71,-27.135c12.177,-6.748 25.818,-10.219 40.923,-10.415l0.693,0c15.414,0 29.325,3.276 41.733,9.828c12.407,6.552 22.465,15.304 30.172,26.256c7.706,10.952 13.563,23.273 17.571,36.963c4.007,13.69 6.011,27.967 6.011,42.831c0,15.059 -2.081,29.532 -6.242,43.417c-4.162,13.886 -10.135,26.452 -17.918,37.697c-7.784,11.246 -17.919,20.291 -30.404,27.136c-12.485,6.845 -26.357,10.366 -41.616,10.561Zm-17.109,-145.507c-13.872,13.299 -20.808,26.403 -20.808,39.311c-0,7.04 2.003,13.787 6.011,20.241c5.857,8.215 12.87,12.322 21.039,12.322c9.557,-0 19.498,-5.281 29.826,-15.842c13.409,-12.517 20.114,-25.131 20.114,-37.844c0,-7.236 -2.158,-14.179 -6.474,-20.828c-5.857,-9.192 -12.716,-13.788 -20.577,-13.788c-8.169,-0 -17.879,5.476 -29.131,16.428Z" style="fill-rule:nonzero;"/></g><g transform="matrix(1.15466,0,0,1.15293,-378.84,-268.038)"><g transform="matrix(0.788408,0,0,1,90.5372,0)"><path d="M468.811,956.373c25.522,-0 36.878,-13.267 36.878,-41.487l-0,-5.734c-0,-28.22 -11.356,-41.487 -36.878,-41.487c-25.522,-0 -36.877,13.267 -36.877,41.487l-0,5.734c-0,28.22 11.355,41.487 36.877,41.487Zm0,-23.386c-6.071,0 -8.657,-6.296 -8.657,-19.563l0,-2.698c0,-13.38 2.586,-19.676 8.657,-19.676c6.071,0 8.77,6.296 8.77,19.676l-0,2.698c-0,13.267 -2.699,19.563 -8.77,19.563Z" style="fill:none;fill-rule:nonzero;stroke:#000;stroke-width:21.28px;stroke-linecap:square;stroke-miterlimit:2;"/><path d="M550.886,956.373c25.522,-0 36.877,-13.267 36.877,-41.487l0,-5.734c0,-28.22 -11.355,-41.487 -36.877,-41.487c-25.522,-0 -36.878,13.267 -36.878,41.487l0,5.734c0,28.22 11.356,41.487 36.878,41.487Zm-0,-23.386c-6.072,0 -8.657,-6.296 -8.657,-19.563l-0,-2.698c-0,-13.38 2.585,-19.676 8.657,-19.676c6.071,0 8.769,6.296 8.769,19.676l0,2.698c0,13.267 -2.698,19.563 -8.769,19.563Z" style="fill:none;fill-rule:nonzero;stroke:#000;stroke-width:21.28px;stroke-linecap:square;stroke-miterlimit:2;"/><path d="M616.658,869.351l-21.924,84.323l23.273,0l21.924,-84.323l-23.273,0Z" style="fill:none;fill-rule:nonzero;stroke:#000;stroke-width:21.28px;stroke-linecap:square;stroke-miterlimit:2;"/><path d="M683.554,956.373c25.522,-0 36.878,-13.267 36.878,-41.487l-0,-5.734c-0,-28.22 -11.356,-41.487 -36.878,-41.487c-25.522,-0 -36.877,13.267 -36.877,41.487l-0,5.734c-0,28.22 11.355,41.487 36.877,41.487Zm0,-23.386c-6.071,0 -8.657,-6.296 -8.657,-19.563l0,-2.698c0,-13.38 2.586,-19.676 8.657,-19.676c6.071,0 8.77,6.296 8.77,19.676l-0,2.698c-0,13.267 -2.699,19.563 -8.77,19.563Z" style="fill:none;fill-rule:nonzero;stroke:#000;stroke-width:21.28px;stroke-linecap:square;stroke-miterlimit:2;"/><path d="M765.629,956.373c25.522,-0 36.877,-13.267 36.877,-41.487l0,-5.734c0,-28.22 -11.355,-41.487 -36.877,-41.487c-25.522,-0 -36.878,13.267 -36.878,41.487l0,5.734c0,28.22 11.356,41.487 36.878,41.487Zm-0,-23.386c-6.072,0 -8.657,-6.296 -8.657,-19.563l-0,-2.698c-0,-13.38 2.585,-19.676 8.657,-19.676c6.071,0 8.769,6.296 8.769,19.676l0,2.698c0,13.267 -2.698,19.563 -8.769,19.563Z" style="fill:none;fill-rule:nonzero;stroke:#000;stroke-width:21.28px;stroke-linecap:square;stroke-miterlimit:2;"/><path d="M831.401,869.351l-21.924,84.323l23.273,0l21.924,-84.323l-23.273,0Z" style="fill:none;fill-rule:nonzero;stroke:#000;stroke-width:21.28px;stroke-linecap:square;stroke-miterlimit:2;"/><path d="M900.658,931.413c8.095,-4.272 18.214,-11.356 23.498,-16.415c15.066,-14.841 7.533,-43.96 -17.764,-46.996c-16.752,-2.024 -29.119,1.574 -43.173,8.32l11.917,21.137c7.308,-3.71 14.729,-6.521 21.812,-6.521c7.308,-0 11.356,7.87 4.497,15.066c-14.391,15.178 -37.664,31.031 -37.664,31.031l7.758,16.639l62.061,0l0,-22.261l-32.942,0Z" style="fill:none;fill-rule:nonzero;stroke:#000;stroke-width:21.28px;stroke-linecap:square;stroke-miterlimit:2;"/><path d="M980.372,956.373c25.522,-0 36.877,-13.267 36.877,-41.487l0,-5.734c0,-28.22 -11.355,-41.487 -36.877,-41.487c-25.522,-0 -36.878,13.267 -36.878,41.487l0,5.734c0,28.22 11.356,41.487 36.878,41.487Zm-0,-23.386c-6.072,0 -8.657,-6.296 -8.657,-19.563l-0,-2.698c-0,-13.38 2.585,-19.676 8.657,-19.676c6.071,0 8.769,6.296 8.769,19.676l0,2.698c0,13.267 -2.698,19.563 -8.769,19.563Z" style="fill:none;fill-rule:nonzero;stroke:#000;stroke-width:21.28px;stroke-linecap:square;stroke-miterlimit:2;"/><path d="M1064.81,931.413c8.095,-4.272 18.214,-11.356 23.498,-16.415c15.066,-14.841 7.533,-43.96 -17.764,-46.996c-16.752,-2.024 -29.119,1.574 -43.173,8.32l11.917,21.137c7.308,-3.71 14.729,-6.521 21.812,-6.521c7.308,-0 11.356,7.87 4.497,15.066c-14.391,15.178 -37.664,31.031 -37.664,31.031l7.758,16.639l62.062,0l-0,-22.261l-32.943,0Z" style="fill:none;fill-rule:nonzero;stroke:#000;stroke-width:21.28px;stroke-linecap:square;stroke-miterlimit:2;"/><path d="M1146.32,890.263c7.757,-1.349 14.503,0.675 18.213,3.823l14.504,-14.616c-7.308,-7.196 -20.35,-11.131 -29.569,-11.131c-27.096,0 -40.363,18.889 -40.363,46.996c0,28.108 11.356,41.263 36.765,41.263c22.261,-0 34.067,-12.368 34.067,-29.682c-0,-21.137 -24.96,-32.83 -44.86,-26.084c-0,-4.385 4.834,-9.557 11.243,-10.569Zm-0.787,45.872c-7.533,0 -10.569,-4.61 -10.569,-8.545c0,-3.935 3.036,-8.432 10.569,-8.432c7.533,0 10.681,4.497 10.681,8.432c-0,3.935 -3.148,8.545 -10.681,8.545Z" style="fill:none;fill-rule:nonzero;stroke:#000;stroke-width:21.28px;stroke-linecap:square;stroke-miterlimit:2;"/></g><g transform="matrix(0.788408,0,0,1,90.5372,0)"><g transform="matrix(112.431,0,0,112.431,427.886,953.674)"><path d="M0.364,0.024c0.227,0 0.328,-0.118 0.328,-0.369l0,-0.051c0,-0.251 -0.101,-0.369 -0.328,-0.369c-0.227,-0 -0.328,0.118 -0.328,0.369l0,0.051c0,0.251 0.101,0.369 0.328,0.369Zm0,-0.208c-0.054,-0 -0.077,-0.056 -0.077,-0.174l0,-0.024c0,-0.119 0.023,-0.175 0.077,-0.175c0.054,0 0.078,0.056 0.078,0.175l0,0.024c0,0.118 -0.024,0.174 -0.078,0.174Z" style="fill:#fff;fill-rule:nonzero;"/></g><g transform="matrix(112.431,0,0,112.431,509.961,953.674)"><path d="M0.364,0.024c0.227,0 0.328,-0.118 0.328,-0.369l0,-0.051c0,-0.251 -0.101,-0.369 -0.328,-0.369c-0.227,-0 -0.328,0.118 -0.328,0.369l0,0.051c0,0.251 0.101,0.369 0.328,0.369Zm0,-0.208c-0.054,-0 -0.077,-0.056 -0.077,-0.174l0,-0.024c0,-0.119 0.023,-0.175 0.077,-0.175c0.054,0 0.078,0.056 0.078,0.175l0,0.024c0,0.118 -0.024,0.174 -0.078,0.174Z" style="fill:#fff;fill-rule:nonzero;"/></g><g transform="matrix(112.431,0,0,112.431,592.035,953.674)"><path d="M0.219,-0.75l-0.195,0.75l0.207,-0l0.195,-0.75l-0.207,0Z" style="fill:#fff;fill-rule:nonzero;"/></g><g transform="matrix(112.431,0,0,112.431,642.629,953.674)"><path d="M0.364,0.024c0.227,0 0.328,-0.118 0.328,-0.369l0,-0.051c0,-0.251 -0.101,-0.369 -0.328,-0.369c-0.227,-0 -0.328,0.118 -0.328,0.369l0,0.051c0,0.251 0.101,0.369 0.328,0.369Zm0,-0.208c-0.054,-0 -0.077,-0.056 -0.077,-0.174l0,-0.024c0,-0.119 0.023,-0.175 0.077,-0.175c0.054,0 0.078,0.056 0.078,0.175l0,0.024c0,0.118 -0.024,0.174 -0.078,0.174Z" style="fill:#fff;fill-rule:nonzero;"/></g><g transform="matrix(112.431,0,0,112.431,724.704,953.674)"><path d="M0.364,0.024c0.227,0 0.328,-0.118 0.328,-0.369l0,-0.051c0,-0.251 -0.101,-0.369 -0.328,-0.369c-0.227,-0 -0.328,0.118 -0.328,0.369l0,0.051c0,0.251 0.101,0.369 0.328,0.369Zm0,-0.208c-0.054,-0 -0.077,-0.056 -0.077,-0.174l0,-0.024c0,-0.119 0.023,-0.175 0.077,-0.175c0.054,0 0.078,0.056 0.078,0.175l0,0.024c0,0.118 -0.024,0.174 -0.078,0.174Z" style="fill:#fff;fill-rule:nonzero;"/></g><g transform="matrix(112.431,0,0,112.431,806.778,953.674)"><path d="M0.219,-0.75l-0.195,0.75l0.207,-0l0.195,-0.75l-0.207,0Z" style="fill:#fff;fill-rule:nonzero;"/></g><g transform="matrix(112.431,0,0,112.431,857.372,953.674)"><path d="M0.385,-0.198c0.072,-0.038 0.162,-0.101 0.209,-0.146c0.134,-0.132 0.067,-0.391 -0.158,-0.418c-0.149,-0.018 -0.259,0.014 -0.384,0.074l0.106,0.188c0.065,-0.033 0.131,-0.058 0.194,-0.058c0.065,0 0.101,0.07 0.04,0.134c-0.128,0.135 -0.335,0.276 -0.335,0.276l0.069,0.148l0.552,0l0,-0.198l-0.293,0Z" style="fill:#fff;fill-rule:nonzero;"/></g><g transform="matrix(112.431,0,0,112.431,939.447,953.674)"><path d="M0.364,0.024c0.227,0 0.328,-0.118 0.328,-0.369l0,-0.051c0,-0.251 -0.101,-0.369 -0.328,-0.369c-0.227,-0 -0.328,0.118 -0.328,0.369l0,0.051c0,0.251 0.101,0.369 0.328,0.369Zm0,-0.208c-0.054,-0 -0.077,-0.056 -0.077,-0.174l0,-0.024c0,-0.119 0.023,-0.175 0.077,-0.175c0.054,0 0.078,0.056 0.078,0.175l0,0.024c0,0.118 -0.024,0.174 -0.078,0.174Z" style="fill:#fff;fill-rule:nonzero;"/></g><g transform="matrix(112.431,0,0,112.431,1021.52,953.674)"><path d="M0.385,-0.198c0.072,-0.038 0.162,-0.101 0.209,-0.146c0.134,-0.132 0.067,-0.391 -0.158,-0.418c-0.149,-0.018 -0.259,0.014 -0.384,0.074l0.106,0.188c0.065,-0.033 0.131,-0.058 0.194,-0.058c0.065,0 0.101,0.07 0.04,0.134c-0.128,0.135 -0.335,0.276 -0.335,0.276l0.069,0.148l0.552,0l0,-0.198l-0.293,0Z" style="fill:#fff;fill-rule:nonzero;"/></g><g transform="matrix(112.431,0,0,112.431,1103.6,953.674)"><path d="M0.38,-0.564c0.069,-0.012 0.129,0.006 0.162,0.034l0.129,-0.13c-0.065,-0.064 -0.181,-0.099 -0.263,-0.099c-0.241,0 -0.359,0.168 -0.359,0.418c-0,0.25 0.101,0.367 0.327,0.367c0.198,0 0.303,-0.11 0.303,-0.264c0,-0.188 -0.222,-0.292 -0.399,-0.232c0,-0.039 0.043,-0.085 0.1,-0.094Zm-0.007,0.408c-0.067,0 -0.094,-0.041 -0.094,-0.076c0,-0.035 0.027,-0.075 0.094,-0.075c0.067,0 0.095,0.04 0.095,0.075c0,0.035 -0.028,0.076 -0.095,0.076Z" style="fill:#fff;fill-rule:nonzero;"/></g></g></g></g></svg>