<?xml version="1.0" encoding="UTF-8" standalone="no"?><!DOCTYPE svg PUBLIC "-//W3C//DTD SVG 1.1//EN" "http://www.w3.org/Graphics/SVG/1.1/DTD/svg11.dtd"><svg width="100%" height="100%" viewBox="0 0 919 972" version="1.1" xmlns="http://www.w3.org/2000/svg" xmlns:xlink="http://www.w3.org/1999/xlink" xml:space="preserve" xmlns:serif="http://www.serif.com/" style="fill-rule:evenodd;clip-rule:evenodd;"><g><g><path d="M56.955,120.563c0,-35.618 21.152,-64.473 47.261,-64.473l710.318,0c26.109,0 47.261,28.855 47.261,64.473l-0,730.749c-0,35.618 -21.152,64.473 -47.261,64.473l-710.318,-0c-26.109,-0 -47.261,-28.855 -47.261,-64.473l0,-730.749Z" style="stroke:#fff;stroke-width:26.75px;"/><path d="M95.64,120.349c-0,-12.814 14.004,-23.208 31.268,-23.208l661.159,-0c17.265,-0 31.269,10.394 31.269,23.208l-0,263.02c-0,12.815 -14.004,23.209 -31.269,23.209l-661.159,-0c-17.264,-0 -31.268,-10.394 -31.268,-23.209l-0,-263.02Z" style="fill:#fb4eff;"/><g transform="matrix(0.0242208,0,0,0.0174122,88.9616,517.434)"><g transform="matrix(6266,0,0,6266,-0.710938,0)"><path d="M0.588,-0.251l0.095,0.024c-0.02,0.078 -0.056,0.137 -0.108,0.178c-0.051,0.041 -0.114,0.061 -0.189,0.061c-0.077,0 -0.14,-0.015 -0.188,-0.047c-0.048,-0.031 -0.085,-0.077 -0.11,-0.136c-0.026,-0.06 -0.038,-0.124 -0.038,-0.192c-0,-0.075 0.014,-0.14 0.043,-0.195c0.028,-0.056 0.069,-0.098 0.121,-0.127c0.053,-0.029 0.111,-0.043 0.174,-0.043c0.071,-0 0.132,0.018 0.18,0.055c0.049,0.036 0.083,0.087 0.102,0.153l-0.093,0.022c-0.016,-0.052 -0.041,-0.09 -0.072,-0.113c-0.032,-0.024 -0.071,-0.036 -0.119,-0.036c-0.055,0 -0.101,0.013 -0.138,0.04c-0.037,0.026 -0.063,0.061 -0.078,0.106c-0.015,0.044 -0.023,0.09 -0.023,0.137c0,0.061 0.009,0.114 0.027,0.16c0.018,0.045 0.045,0.079 0.083,0.101c0.037,0.023 0.078,0.034 0.121,0.034c0.053,0 0.098,-0.015 0.135,-0.046c0.037,-0.03 0.062,-0.076 0.075,-0.136Z" style="fill:#fb4eff;fill-rule:nonzero;"/></g><g transform="matrix(6266,0,0,6266,4522.97,0)"><path d="M0.547,-0.716l0.095,0l-0,0.414c-0,0.072 -0.009,0.129 -0.025,0.171c-0.016,0.042 -0.045,0.077 -0.088,0.103c-0.042,0.027 -0.098,0.04 -0.167,0.04c-0.067,0 -0.122,-0.011 -0.165,-0.034c-0.042,-0.024 -0.073,-0.057 -0.091,-0.101c-0.018,-0.044 -0.027,-0.103 -0.027,-0.179l-0,-0.414l0.094,0l0,0.413c0,0.062 0.006,0.108 0.018,0.138c0.011,0.029 0.031,0.052 0.059,0.068c0.028,0.016 0.063,0.024 0.104,0.024c0.069,-0 0.119,-0.016 0.148,-0.048c0.03,-0.031 0.045,-0.092 0.045,-0.182l-0,-0.413Z" style="fill:#fb4eff;fill-rule:nonzero;"/></g><g transform="matrix(6266,0,0,6266,9046.65,0)"><path d="M0.079,-0l-0,-0.716l0.317,0c0.064,0 0.112,0.007 0.146,0.019c0.033,0.013 0.059,0.036 0.079,0.069c0.02,0.032 0.03,0.068 0.03,0.107c-0,0.051 -0.017,0.094 -0.049,0.129c-0.033,0.035 -0.084,0.057 -0.153,0.066c0.025,0.012 0.044,0.024 0.057,0.036c0.028,0.025 0.054,0.057 0.079,0.095l0.124,0.195l-0.119,-0l-0.094,-0.149c-0.028,-0.043 -0.051,-0.076 -0.069,-0.099c-0.018,-0.022 -0.034,-0.038 -0.048,-0.047c-0.014,-0.01 -0.028,-0.016 -0.043,-0.019c-0.011,-0.003 -0.028,-0.004 -0.053,-0.004l-0.11,0l0,0.318l-0.094,-0Zm0.094,-0.4l0.204,0c0.043,0 0.077,-0.004 0.102,-0.013c0.024,-0.009 0.042,-0.024 0.055,-0.043c0.013,-0.02 0.019,-0.041 0.019,-0.065c0,-0.033 -0.012,-0.061 -0.037,-0.083c-0.024,-0.022 -0.063,-0.033 -0.116,-0.033l-0.227,0l0,0.237Z" style="fill:#fb4eff;fill-rule:nonzero;"/></g><g transform="matrix(6266,0,0,6266,13570.3,0)"><path d="M0.079,-0l-0,-0.716l0.317,0c0.064,0 0.112,0.007 0.146,0.019c0.033,0.013 0.059,0.036 0.079,0.069c0.02,0.032 0.03,0.068 0.03,0.107c-0,0.051 -0.017,0.094 -0.049,0.129c-0.033,0.035 -0.084,0.057 -0.153,0.066c0.025,0.012 0.044,0.024 0.057,0.036c0.028,0.025 0.054,0.057 0.079,0.095l0.124,0.195l-0.119,-0l-0.094,-0.149c-0.028,-0.043 -0.051,-0.076 -0.069,-0.099c-0.018,-0.022 -0.034,-0.038 -0.048,-0.047c-0.014,-0.01 -0.028,-0.016 -0.043,-0.019c-0.011,-0.003 -0.028,-0.004 -0.053,-0.004l-0.11,0l0,0.318l-0.094,-0Zm0.094,-0.4l0.204,0c0.043,0 0.077,-0.004 0.102,-0.013c0.024,-0.009 0.042,-0.024 0.055,-0.043c0.013,-0.02 0.019,-0.041 0.019,-0.065c0,-0.033 -0.012,-0.061 -0.037,-0.083c-0.024,-0.022 -0.063,-0.033 -0.116,-0.033l-0.227,0l0,0.237Z" style="fill:#fb4eff;fill-rule:nonzero;"/></g><g transform="matrix(6266,0,0,6266,18094,0)"><path d="M0.079,-0l0,-0.716l0.518,0l-0,0.085l-0.423,-0l-0,0.219l0.396,-0l-0,0.084l-0.396,-0l-0,0.244l0.439,-0l0,0.084l-0.534,0Z" style="fill:#fb4eff;fill-rule:nonzero;"/></g><g transform="matrix(6266,0,0,6266,22272,0)"><path d="M0.076,-0l0,-0.716l0.097,0l0.376,0.562l0,-0.562l0.091,0l0,0.716l-0.097,-0l-0.376,-0.563l-0,0.563l-0.091,-0Z" style="fill:#fb4eff;fill-rule:nonzero;"/></g><g transform="matrix(6266,0,0,6266,26795.7,0)"><path d="M0.259,-0l0,-0.631l-0.236,-0l0,-0.085l0.568,0l-0,0.085l-0.237,-0l0,0.631l-0.095,-0Z" style="fill:#fb4eff;fill-rule:nonzero;"/></g><g transform="matrix(6266,0,0,6266,1213.94,6266)"><path d="M0.282,-0l-0.278,-0.716l0.103,0l0.186,0.52c0.015,0.042 0.027,0.081 0.038,0.117c0.011,-0.039 0.023,-0.078 0.038,-0.117l0.194,-0.52l0.096,0l-0.28,0.716l-0.097,-0Z" style="fill:#fb4eff;fill-rule:nonzero;"/></g><g transform="matrix(6266,0,0,6266,5391.89,6266)"><path d="M0.079,-0l0,-0.716l0.518,0l-0,0.085l-0.423,-0l-0,0.219l0.396,-0l-0,0.084l-0.396,-0l-0,0.244l0.439,-0l0,0.084l-0.534,0Z" style="fill:#fb4eff;fill-rule:nonzero;"/></g><g transform="matrix(6266,0,0,6266,9569.84,6266)"><path d="M0.079,-0l-0,-0.716l0.317,0c0.064,0 0.112,0.007 0.146,0.019c0.033,0.013 0.059,0.036 0.079,0.069c0.02,0.032 0.03,0.068 0.03,0.107c-0,0.051 -0.017,0.094 -0.049,0.129c-0.033,0.035 -0.084,0.057 -0.153,0.066c0.025,0.012 0.044,0.024 0.057,0.036c0.028,0.025 0.054,0.057 0.079,0.095l0.124,0.195l-0.119,-0l-0.094,-0.149c-0.028,-0.043 -0.051,-0.076 -0.069,-0.099c-0.018,-0.022 -0.034,-0.038 -0.048,-0.047c-0.014,-0.01 -0.028,-0.016 -0.043,-0.019c-0.011,-0.003 -0.028,-0.004 -0.053,-0.004l-0.11,0l0,0.318l-0.094,-0Zm0.094,-0.4l0.204,0c0.043,0 0.077,-0.004 0.102,-0.013c0.024,-0.009 0.042,-0.024 0.055,-0.043c0.013,-0.02 0.019,-0.041 0.019,-0.065c0,-0.033 -0.012,-0.061 -0.037,-0.083c-0.024,-0.022 -0.063,-0.033 -0.116,-0.033l-0.227,0l0,0.237Z" style="fill:#fb4eff;fill-rule:nonzero;"/></g><g transform="matrix(6266,0,0,6266,14093.5,6266)"><path d="M0.045,-0.23l0.089,-0.008c0.005,0.036 0.014,0.065 0.03,0.088c0.015,0.023 0.039,0.042 0.072,0.056c0.032,0.014 0.069,0.021 0.11,0.021c0.036,0 0.068,-0.005 0.095,-0.016c0.028,-0.011 0.049,-0.025 0.062,-0.044c0.014,-0.019 0.02,-0.039 0.02,-0.061c0,-0.023 -0.006,-0.042 -0.019,-0.059c-0.013,-0.017 -0.035,-0.031 -0.065,-0.042c-0.019,-0.008 -0.061,-0.02 -0.127,-0.035c-0.066,-0.016 -0.112,-0.031 -0.138,-0.045c-0.034,-0.018 -0.06,-0.04 -0.077,-0.067c-0.016,-0.026 -0.025,-0.056 -0.025,-0.089c0,-0.036 0.011,-0.07 0.031,-0.101c0.021,-0.031 0.05,-0.055 0.09,-0.072c0.039,-0.016 0.083,-0.024 0.131,-0.024c0.053,-0 0.1,0.009 0.141,0.026c0.04,0.017 0.071,0.042 0.093,0.075c0.022,0.033 0.034,0.071 0.035,0.113l-0.091,0.007c-0.004,-0.046 -0.021,-0.08 -0.049,-0.103c-0.028,-0.023 -0.07,-0.035 -0.125,-0.035c-0.057,0 -0.099,0.011 -0.125,0.032c-0.026,0.021 -0.039,0.046 -0.039,0.076c-0,0.026 0.009,0.047 0.027,0.063c0.019,0.017 0.066,0.034 0.143,0.051c0.077,0.018 0.13,0.033 0.159,0.046c0.041,0.019 0.072,0.044 0.092,0.073c0.02,0.03 0.03,0.063 0.03,0.102c-0,0.038 -0.011,0.074 -0.033,0.108c-0.022,0.033 -0.053,0.059 -0.094,0.078c-0.041,0.019 -0.087,0.028 -0.138,0.028c-0.065,0 -0.119,-0.009 -0.163,-0.028c-0.044,-0.019 -0.078,-0.047 -0.103,-0.085c-0.025,-0.038 -0.038,-0.081 -0.039,-0.129Z" style="fill:#fb4eff;fill-rule:nonzero;"/></g><g transform="matrix(6266,0,0,6266,18271.5,6266)"><rect x="0.093" y="-0.716" width="0.095" height="0.716" style="fill:#fb4eff;fill-rule:nonzero;"/></g><g transform="matrix(6266,0,0,6266,20010.9,6266)"><path d="M0.048,-0.349c0,-0.118 0.032,-0.211 0.096,-0.279c0.064,-0.067 0.146,-0.101 0.247,-0.101c0.066,0 0.126,0.016 0.179,0.048c0.053,0.031 0.093,0.075 0.121,0.132c0.028,0.056 0.042,0.12 0.042,0.192c-0,0.073 -0.015,0.138 -0.044,0.195c-0.029,0.057 -0.071,0.101 -0.125,0.13c-0.053,0.029 -0.111,0.044 -0.173,0.044c-0.068,0 -0.128,-0.016 -0.181,-0.049c-0.053,-0.032 -0.093,-0.077 -0.121,-0.133c-0.027,-0.056 -0.041,-0.116 -0.041,-0.179Zm0.098,0.002c-0,0.086 0.023,0.154 0.07,0.204c0.046,0.049 0.104,0.074 0.174,0.074c0.071,0 0.13,-0.025 0.176,-0.075c0.046,-0.05 0.069,-0.121 0.069,-0.213c0,-0.059 -0.01,-0.11 -0.029,-0.153c-0.02,-0.043 -0.049,-0.077 -0.087,-0.101c-0.038,-0.024 -0.08,-0.036 -0.127,-0.036c-0.067,0 -0.125,0.023 -0.173,0.069c-0.049,0.046 -0.073,0.123 -0.073,0.231Z" style="fill:#fb4eff;fill-rule:nonzero;"/></g><g transform="matrix(6266,0,0,6266,24883.4,6266)"><path d="M0.076,-0l0,-0.716l0.097,0l0.376,0.562l0,-0.562l0.091,0l0,0.716l-0.097,-0l-0.376,-0.563l-0,0.563l-0.091,-0Z" style="fill:#fb4eff;fill-rule:nonzero;"/></g></g><path d="M200.364,195.883c-4.432,-0.783 -8.79,-1.174 -13.074,-1.174c-12.558,0 -18.948,4.393 -19.169,13.179c0.073,3.123 0.978,5.368 2.714,6.735c1.736,1.368 4.599,2.441 8.588,3.221c9.972,1.564 17.543,8.545 22.714,20.943c5.171,12.397 7.793,28.845 7.867,49.344l0,0.587c0,13.666 -0.535,25.038 -1.606,34.117c-1.071,9.079 -2.623,16.547 -4.654,22.405c-2.032,5.858 -4.931,10.349 -8.698,13.472c-3.767,3.123 -7.867,5.222 -12.299,6.296c-4.432,1.074 -10.12,1.611 -17.064,1.611c-4.432,0 -13.887,-0.391 -28.366,-1.173l7.092,-61.313c5.761,0.978 10.304,1.467 13.628,1.467c11.82,-0 17.729,-4.303 17.729,-12.908c0,-1.76 -0.166,-3.325 -0.499,-4.694c-0.332,-1.369 -0.886,-2.542 -1.662,-3.52c-0.775,-0.978 -1.514,-1.76 -2.216,-2.347c-0.701,-0.587 -1.699,-1.125 -2.991,-1.614c-1.293,-0.488 -2.327,-0.831 -3.103,-1.026c-0.776,-0.196 -1.939,-0.44 -3.49,-0.734c-1.551,-0.293 -2.659,-0.538 -3.324,-0.733c-7.757,-1.76 -13.777,-8.459 -18.061,-20.095c-4.285,-11.637 -6.464,-28.016 -6.538,-49.138l0,-2.347c0,-12.908 0.628,-23.811 1.884,-32.71c1.256,-8.899 3.01,-16.086 5.263,-21.562c2.253,-5.476 5.374,-9.73 9.363,-12.761c3.989,-3.032 8.199,-5.036 12.632,-6.014c4.432,-0.978 9.972,-1.467 16.62,-1.467c4.506,-0 13.481,0.391 26.925,1.173l-6.205,62.78Z" style="fill-rule:nonzero;"/><path d="M274.898,131.93l32.577,-0l-0,234.689l-32.577,0l0,-85.368l-22.825,-0l-0,85.368l-32.576,0l-0,-234.689l32.576,-0l-0,86.542l22.825,-0l0,-86.542Z" style="fill-rule:nonzero;"/><path d="M372.147,278.904l0,-146.974l30.139,-0l-0,163.696c-0,9.778 -0.259,18.237 -0.776,25.375c-0.517,7.139 -1.145,13.25 -1.884,18.335c-0.738,5.085 -1.902,9.339 -3.49,12.762c-1.588,3.422 -3.139,6.111 -4.654,8.067c-1.514,1.956 -3.656,3.423 -6.426,4.4c-2.77,0.978 -5.3,1.565 -7.59,1.761c-2.29,0.195 -5.393,0.293 -9.308,0.293l-6.98,0c-5.541,0 -10.194,-0.44 -13.962,-1.32c-3.767,-0.88 -7.497,-2.738 -11.191,-5.574c-3.693,-2.836 -6.611,-6.796 -8.753,-11.881c-2.143,-5.085 -3.878,-11.979 -5.208,-20.682c-1.33,-8.703 -1.995,-19.215 -1.995,-31.536l0,-163.696l30.139,-0l-0,146.974c-0,13.103 0.665,21.464 1.994,25.082c1.33,3.619 4.322,5.428 8.976,5.428c4.284,-0 7.183,-1.956 8.698,-5.868c1.514,-3.911 2.271,-12.125 2.271,-24.642Z" style="fill-rule:nonzero;"/><path d="M493.662,131.93l-0,62.779l-46.095,0l0,23.763l46.095,-0l-0,62.779l-46.095,-0l0,85.368l-32.576,0l0,-234.689l78.671,-0Z" style="fill-rule:nonzero;"/><path d="M583.154,131.93l0,62.779l-46.094,0l-0,23.763l46.094,-0l0,62.779l-46.094,-0l-0,85.368l-32.576,0l-0,-234.689l78.67,-0Z" style="fill-rule:nonzero;"/><path d="M626.552,303.84l46.095,-0l-0,62.779l-78.671,0l0,-234.689l32.576,-0l0,171.91Z" style="fill-rule:nonzero;"/><path d="M762.139,131.93l0,62.779l-46.094,0l-0,23.763l46.094,-0l0,62.779l-46.094,-0l-0,22.589l46.094,-0l0,62.779l-78.67,0l-0,-234.689l78.67,-0Z" style="fill-rule:nonzero;"/></g><g transform="matrix(1.15466,0,0,1.15293,-378.584,-268.038)"><g transform="matrix(0.788408,0,0,1,90.5372,0)"><path d="M468.361,956.373c22.712,-0 36.878,-12.03 35.754,-32.268c-0.45,-10.231 -7.983,-19.451 -17.202,-23.61l15.74,-16.303l-6.296,-14.841l-58.577,0l0,20.35l27.321,0l-11.131,11.243c2.699,5.847 5.734,12.368 7.421,16.078c7.308,-3.373 14.279,-1.237 16.864,5.059c2.249,5.172 -0.562,11.018 -6.408,13.042c-5.734,2.136 -12.93,-0.674 -22.037,-9.332l-16.752,16.865c8.882,8.657 22.149,13.717 35.303,13.717Z" style="fill:none;fill-rule:nonzero;stroke:#000;stroke-width:21.28px;stroke-linecap:square;stroke-miterlimit:2;"/><path d="M538.743,869.351l-24.959,14.054l12.255,21.699l12.704,-7.083l0,55.653l28.445,0l0,-84.323l-28.445,0Z" style="fill:none;fill-rule:nonzero;stroke:#000;stroke-width:21.28px;stroke-linecap:square;stroke-miterlimit:2;"/><path d="M616.658,869.351l-21.924,84.323l23.273,0l21.924,-84.323l-23.273,0Z" style="fill:none;fill-rule:nonzero;stroke:#000;stroke-width:21.28px;stroke-linecap:square;stroke-miterlimit:2;"/><path d="M683.554,956.373c25.522,-0 36.878,-13.267 36.878,-41.487l-0,-5.734c-0,-28.22 -11.356,-41.487 -36.878,-41.487c-25.522,-0 -36.877,13.267 -36.877,41.487l-0,5.734c-0,28.22 11.355,41.487 36.877,41.487Zm0,-23.386c-6.071,0 -8.657,-6.296 -8.657,-19.563l0,-2.698c0,-13.38 2.586,-19.676 8.657,-19.676c6.071,0 8.77,6.296 8.77,19.676l-0,2.698c-0,13.267 -2.699,19.563 -8.77,19.563Z" style="fill:none;fill-rule:nonzero;stroke:#000;stroke-width:21.28px;stroke-linecap:square;stroke-miterlimit:2;"/><path d="M795.198,869.351l-62.624,0l0,23.948l38.002,-0l-28.108,60.375l29.569,0l31.256,-67.121l-8.095,-17.202Z" style="fill:none;fill-rule:nonzero;stroke:#000;stroke-width:21.28px;stroke-linecap:square;stroke-miterlimit:2;"/><path d="M831.401,869.351l-21.924,84.323l23.273,0l21.924,-84.323l-23.273,0Z" style="fill:none;fill-rule:nonzero;stroke:#000;stroke-width:21.28px;stroke-linecap:square;stroke-miterlimit:2;"/><path d="M900.658,931.413c8.095,-4.272 18.214,-11.356 23.498,-16.415c15.066,-14.841 7.533,-43.96 -17.764,-46.996c-16.752,-2.024 -29.119,1.574 -43.173,8.32l11.917,21.137c7.308,-3.71 14.729,-6.521 21.812,-6.521c7.308,-0 11.356,7.87 4.497,15.066c-14.391,15.178 -37.664,31.031 -37.664,31.031l7.758,16.639l62.061,0l0,-22.261l-32.942,0Z" style="fill:none;fill-rule:nonzero;stroke:#000;stroke-width:21.28px;stroke-linecap:square;stroke-miterlimit:2;"/><path d="M980.372,956.373c25.522,-0 36.877,-13.267 36.877,-41.487l0,-5.734c0,-28.22 -11.355,-41.487 -36.877,-41.487c-25.522,-0 -36.878,13.267 -36.878,41.487l0,5.734c0,28.22 11.356,41.487 36.878,41.487Zm-0,-23.386c-6.072,0 -8.657,-6.296 -8.657,-19.563l-0,-2.698c-0,-13.38 2.585,-19.676 8.657,-19.676c6.071,0 8.769,6.296 8.769,19.676l0,2.698c0,13.267 -2.698,19.563 -8.769,19.563Z" style="fill:none;fill-rule:nonzero;stroke:#000;stroke-width:21.28px;stroke-linecap:square;stroke-miterlimit:2;"/><path d="M1064.81,931.413c8.095,-4.272 18.214,-11.356 23.498,-16.415c15.066,-14.841 7.533,-43.96 -17.764,-46.996c-16.752,-2.024 -29.119,1.574 -43.173,8.32l11.917,21.137c7.308,-3.71 14.729,-6.521 21.812,-6.521c7.308,-0 11.356,7.87 4.497,15.066c-14.391,15.178 -37.664,31.031 -37.664,31.031l7.758,16.639l62.062,0l-0,-22.261l-32.943,0Z" style="fill:none;fill-rule:nonzero;stroke:#000;stroke-width:21.28px;stroke-linecap:square;stroke-miterlimit:2;"/><path d="M1111.58,907.803l12.592,10.231c14.728,-6.521 26.533,-5.172 29.906,3.822c1.687,4.61 -1.011,9.669 -6.521,11.806c-7.42,2.923 -16.302,-0.675 -22.711,-7.308l-16.302,16.302c7.42,8.545 21.249,13.717 35.865,13.717c24.173,-0 38.564,-17.877 35.753,-35.079c-3.035,-19.563 -20.574,-27.995 -42.049,-26.084l-0.225,0.113l0,-6.409l38.227,0l-0,-19.563l-64.648,0l0.113,38.452Z" style="fill:none;fill-rule:nonzero;stroke:#000;stroke-width:21.28px;stroke-linecap:square;stroke-miterlimit:2;"/></g><g transform="matrix(0.788408,0,0,1,90.5372,0)"><g transform="matrix(112.431,0,0,112.431,427.886,953.674)"><path d="M0.36,0.024c0.202,0 0.328,-0.107 0.318,-0.287c-0.004,-0.091 -0.071,-0.173 -0.153,-0.21l0.14,-0.145l-0.056,-0.132l-0.521,0l0,0.181l0.243,0l-0.099,0.1c0.024,0.052 0.051,0.11 0.066,0.143c0.065,-0.03 0.127,-0.011 0.15,0.045c0.02,0.046 -0.005,0.098 -0.057,0.116c-0.051,0.019 -0.115,-0.006 -0.196,-0.083l-0.149,0.15c0.079,0.077 0.197,0.122 0.314,0.122Z" style="fill:#fff;fill-rule:nonzero;"/></g><g transform="matrix(112.431,0,0,112.431,509.961,953.674)"><path d="M0.256,-0.75l-0.222,0.125l0.109,0.193l0.113,-0.063l0,0.495l0.253,-0l0,-0.75l-0.253,0Z" style="fill:#fff;fill-rule:nonzero;"/></g><g transform="matrix(112.431,0,0,112.431,592.035,953.674)"><path d="M0.219,-0.75l-0.195,0.75l0.207,-0l0.195,-0.75l-0.207,0Z" style="fill:#fff;fill-rule:nonzero;"/></g><g transform="matrix(112.431,0,0,112.431,642.629,953.674)"><path d="M0.364,0.024c0.227,0 0.328,-0.118 0.328,-0.369l0,-0.051c0,-0.251 -0.101,-0.369 -0.328,-0.369c-0.227,-0 -0.328,0.118 -0.328,0.369l0,0.051c0,0.251 0.101,0.369 0.328,0.369Zm0,-0.208c-0.054,-0 -0.077,-0.056 -0.077,-0.174l0,-0.024c0,-0.119 0.023,-0.175 0.077,-0.175c0.054,0 0.078,0.056 0.078,0.175l0,0.024c0,0.118 -0.024,0.174 -0.078,0.174Z" style="fill:#fff;fill-rule:nonzero;"/></g><g transform="matrix(112.431,0,0,112.431,724.704,953.674)"><path d="M0.627,-0.75l-0.557,0l0,0.213l0.338,0l-0.25,0.537l0.263,-0l0.278,-0.597l-0.072,-0.153Z" style="fill:#fff;fill-rule:nonzero;"/></g><g transform="matrix(112.431,0,0,112.431,806.778,953.674)"><path d="M0.219,-0.75l-0.195,0.75l0.207,-0l0.195,-0.75l-0.207,0Z" style="fill:#fff;fill-rule:nonzero;"/></g><g transform="matrix(112.431,0,0,112.431,857.372,953.674)"><path d="M0.385,-0.198c0.072,-0.038 0.162,-0.101 0.209,-0.146c0.134,-0.132 0.067,-0.391 -0.158,-0.418c-0.149,-0.018 -0.259,0.014 -0.384,0.074l0.106,0.188c0.065,-0.033 0.131,-0.058 0.194,-0.058c0.065,0 0.101,0.07 0.04,0.134c-0.128,0.135 -0.335,0.276 -0.335,0.276l0.069,0.148l0.552,0l0,-0.198l-0.293,0Z" style="fill:#fff;fill-rule:nonzero;"/></g><g transform="matrix(112.431,0,0,112.431,939.447,953.674)"><path d="M0.364,0.024c0.227,0 0.328,-0.118 0.328,-0.369l0,-0.051c0,-0.251 -0.101,-0.369 -0.328,-0.369c-0.227,-0 -0.328,0.118 -0.328,0.369l0,0.051c0,0.251 0.101,0.369 0.328,0.369Zm0,-0.208c-0.054,-0 -0.077,-0.056 -0.077,-0.174l0,-0.024c0,-0.119 0.023,-0.175 0.077,-0.175c0.054,0 0.078,0.056 0.078,0.175l0,0.024c0,0.118 -0.024,0.174 -0.078,0.174Z" style="fill:#fff;fill-rule:nonzero;"/></g><g transform="matrix(112.431,0,0,112.431,1021.52,953.674)"><path d="M0.385,-0.198c0.072,-0.038 0.162,-0.101 0.209,-0.146c0.134,-0.132 0.067,-0.391 -0.158,-0.418c-0.149,-0.018 -0.259,0.014 -0.384,0.074l0.106,0.188c0.065,-0.033 0.131,-0.058 0.194,-0.058c0.065,0 0.101,0.07 0.04,0.134c-0.128,0.135 -0.335,0.276 -0.335,0.276l0.069,0.148l0.552,0l0,-0.198l-0.293,0Z" style="fill:#fff;fill-rule:nonzero;"/></g><g transform="matrix(112.431,0,0,112.431,1103.6,953.674)"><path d="M0.071,-0.408l0.112,0.091c0.131,-0.058 0.236,-0.046 0.266,0.034c0.015,0.041 -0.009,0.086 -0.058,0.105c-0.066,0.026 -0.145,-0.006 -0.202,-0.065l-0.145,0.145c0.066,0.076 0.189,0.122 0.319,0.122c0.215,0 0.343,-0.159 0.318,-0.312c-0.027,-0.174 -0.183,-0.249 -0.374,-0.232l-0.002,0.001l-0,-0.057l0.34,0l0,-0.174l-0.575,0l0.001,0.342Z" style="fill:#fff;fill-rule:nonzero;"/></g></g></g></g></svg>