<?xml version="1.0" encoding="UTF-8" standalone="no"?><!DOCTYPE svg PUBLIC "-//W3C//DTD SVG 1.1//EN" "http://www.w3.org/Graphics/SVG/1.1/DTD/svg11.dtd"><svg width="100%" height="100%" viewBox="0 0 919 972" version="1.1" xmlns="http://www.w3.org/2000/svg" xmlns:xlink="http://www.w3.org/1999/xlink" xml:space="preserve" xmlns:serif="http://www.serif.com/" style="fill-rule:evenodd;clip-rule:evenodd;"><g><g><path d="M56.955,120.563c0,-35.618 21.152,-64.473 47.261,-64.473l710.318,0c26.109,0 47.261,28.855 47.261,64.473l-0,730.749c-0,35.618 -21.152,64.473 -47.261,64.473l-710.318,-0c-26.109,-0 -47.261,-28.855 -47.261,-64.473l0,-730.749Z" style="stroke:#fff;stroke-width:26.75px;"/><path d="M95.64,120.349c-0,-12.814 14.004,-23.208 31.268,-23.208l661.159,-0c17.265,-0 31.269,10.394 31.269,23.208l-0,263.02c-0,12.815 -14.004,23.209 -31.269,23.209l-661.159,-0c-17.264,-0 -31.268,-10.394 -31.268,-23.209l-0,-263.02Z" style="fill:#ffee1d;"/><g transform="matrix(0.0242208,0,0,0.0174122,88.9616,517.434)"><g transform="matrix(6266,0,0,6266,-0.710938,0)"><path d="M0.588,-0.251l0.095,0.024c-0.02,0.078 -0.056,0.137 -0.108,0.178c-0.051,0.041 -0.114,0.061 -0.189,0.061c-0.077,0 -0.14,-0.015 -0.188,-0.047c-0.048,-0.031 -0.085,-0.077 -0.11,-0.136c-0.026,-0.06 -0.038,-0.124 -0.038,-0.192c-0,-0.075 0.014,-0.14 0.043,-0.195c0.028,-0.056 0.069,-0.098 0.121,-0.127c0.053,-0.029 0.111,-0.043 0.174,-0.043c0.071,-0 0.132,0.018 0.18,0.055c0.049,0.036 0.083,0.087 0.102,0.153l-0.093,0.022c-0.016,-0.052 -0.041,-0.09 -0.072,-0.113c-0.032,-0.024 -0.071,-0.036 -0.119,-0.036c-0.055,0 -0.101,0.013 -0.138,0.04c-0.037,0.026 -0.063,0.061 -0.078,0.106c-0.015,0.044 -0.023,0.09 -0.023,0.137c0,0.061 0.009,0.114 0.027,0.16c0.018,0.045 0.045,0.079 0.083,0.101c0.037,0.023 0.078,0.034 0.121,0.034c0.053,0 0.098,-0.015 0.135,-0.046c0.037,-0.03 0.062,-0.076 0.075,-0.136Z" style="fill:#ffee1d;fill-rule:nonzero;"/></g><g transform="matrix(6266,0,0,6266,4522.97,0)"><path d="M0.547,-0.716l0.095,0l-0,0.414c-0,0.072 -0.009,0.129 -0.025,0.171c-0.016,0.042 -0.045,0.077 -0.088,0.103c-0.042,0.027 -0.098,0.04 -0.167,0.04c-0.067,0 -0.122,-0.011 -0.165,-0.034c-0.042,-0.024 -0.073,-0.057 -0.091,-0.101c-0.018,-0.044 -0.027,-0.103 -0.027,-0.179l-0,-0.414l0.094,0l0,0.413c0,0.062 0.006,0.108 0.018,0.138c0.011,0.029 0.031,0.052 0.059,0.068c0.028,0.016 0.063,0.024 0.104,0.024c0.069,-0 0.119,-0.016 0.148,-0.048c0.03,-0.031 0.045,-0.092 0.045,-0.182l-0,-0.413Z" style="fill:#ffee1d;fill-rule:nonzero;"/></g><g transform="matrix(6266,0,0,6266,9046.65,0)"><path d="M0.079,-0l-0,-0.716l0.317,0c0.064,0 0.112,0.007 0.146,0.019c0.033,0.013 0.059,0.036 0.079,0.069c0.02,0.032 0.03,0.068 0.03,0.107c-0,0.051 -0.017,0.094 -0.049,0.129c-0.033,0.035 -0.084,0.057 -0.153,0.066c0.025,0.012 0.044,0.024 0.057,0.036c0.028,0.025 0.054,0.057 0.079,0.095l0.124,0.195l-0.119,-0l-0.094,-0.149c-0.028,-0.043 -0.051,-0.076 -0.069,-0.099c-0.018,-0.022 -0.034,-0.038 -0.048,-0.047c-0.014,-0.01 -0.028,-0.016 -0.043,-0.019c-0.011,-0.003 -0.028,-0.004 -0.053,-0.004l-0.11,0l0,0.318l-0.094,-0Zm0.094,-0.4l0.204,0c0.043,0 0.077,-0.004 0.102,-0.013c0.024,-0.009 0.042,-0.024 0.055,-0.043c0.013,-0.02 0.019,-0.041 0.019,-0.065c0,-0.033 -0.012,-0.061 -0.037,-0.083c-0.024,-0.022 -0.063,-0.033 -0.116,-0.033l-0.227,0l0,0.237Z" style="fill:#ffee1d;fill-rule:nonzero;"/></g><g transform="matrix(6266,0,0,6266,13570.3,0)"><path d="M0.079,-0l-0,-0.716l0.317,0c0.064,0 0.112,0.007 0.146,0.019c0.033,0.013 0.059,0.036 0.079,0.069c0.02,0.032 0.03,0.068 0.03,0.107c-0,0.051 -0.017,0.094 -0.049,0.129c-0.033,0.035 -0.084,0.057 -0.153,0.066c0.025,0.012 0.044,0.024 0.057,0.036c0.028,0.025 0.054,0.057 0.079,0.095l0.124,0.195l-0.119,-0l-0.094,-0.149c-0.028,-0.043 -0.051,-0.076 -0.069,-0.099c-0.018,-0.022 -0.034,-0.038 -0.048,-0.047c-0.014,-0.01 -0.028,-0.016 -0.043,-0.019c-0.011,-0.003 -0.028,-0.004 -0.053,-0.004l-0.11,0l0,0.318l-0.094,-0Zm0.094,-0.4l0.204,0c0.043,0 0.077,-0.004 0.102,-0.013c0.024,-0.009 0.042,-0.024 0.055,-0.043c0.013,-0.02 0.019,-0.041 0.019,-0.065c0,-0.033 -0.012,-0.061 -0.037,-0.083c-0.024,-0.022 -0.063,-0.033 -0.116,-0.033l-0.227,0l0,0.237Z" style="fill:#ffee1d;fill-rule:nonzero;"/></g><g transform="matrix(6266,0,0,6266,18094,0)"><path d="M0.079,-0l0,-0.716l0.518,0l-0,0.085l-0.423,-0l-0,0.219l0.396,-0l-0,0.084l-0.396,-0l-0,0.244l0.439,-0l0,0.084l-0.534,0Z" style="fill:#ffee1d;fill-rule:nonzero;"/></g><g transform="matrix(6266,0,0,6266,22272,0)"><path d="M0.076,-0l0,-0.716l0.097,0l0.376,0.562l0,-0.562l0.091,0l0,0.716l-0.097,-0l-0.376,-0.563l-0,0.563l-0.091,-0Z" style="fill:#ffee1d;fill-rule:nonzero;"/></g><g transform="matrix(6266,0,0,6266,26795.7,0)"><path d="M0.259,-0l0,-0.631l-0.236,-0l0,-0.085l0.568,0l-0,0.085l-0.237,-0l0,0.631l-0.095,-0Z" style="fill:#ffee1d;fill-rule:nonzero;"/></g><g transform="matrix(6266,0,0,6266,1213.94,6266)"><path d="M0.282,-0l-0.278,-0.716l0.103,0l0.186,0.52c0.015,0.042 0.027,0.081 0.038,0.117c0.011,-0.039 0.023,-0.078 0.038,-0.117l0.194,-0.52l0.096,0l-0.28,0.716l-0.097,-0Z" style="fill:#ffee1d;fill-rule:nonzero;"/></g><g transform="matrix(6266,0,0,6266,5391.89,6266)"><path d="M0.079,-0l0,-0.716l0.518,0l-0,0.085l-0.423,-0l-0,0.219l0.396,-0l-0,0.084l-0.396,-0l-0,0.244l0.439,-0l0,0.084l-0.534,0Z" style="fill:#ffee1d;fill-rule:nonzero;"/></g><g transform="matrix(6266,0,0,6266,9569.84,6266)"><path d="M0.079,-0l-0,-0.716l0.317,0c0.064,0 0.112,0.007 0.146,0.019c0.033,0.013 0.059,0.036 0.079,0.069c0.02,0.032 0.03,0.068 0.03,0.107c-0,0.051 -0.017,0.094 -0.049,0.129c-0.033,0.035 -0.084,0.057 -0.153,0.066c0.025,0.012 0.044,0.024 0.057,0.036c0.028,0.025 0.054,0.057 0.079,0.095l0.124,0.195l-0.119,-0l-0.094,-0.149c-0.028,-0.043 -0.051,-0.076 -0.069,-0.099c-0.018,-0.022 -0.034,-0.038 -0.048,-0.047c-0.014,-0.01 -0.028,-0.016 -0.043,-0.019c-0.011,-0.003 -0.028,-0.004 -0.053,-0.004l-0.11,0l0,0.318l-0.094,-0Zm0.094,-0.4l0.204,0c0.043,0 0.077,-0.004 0.102,-0.013c0.024,-0.009 0.042,-0.024 0.055,-0.043c0.013,-0.02 0.019,-0.041 0.019,-0.065c0,-0.033 -0.012,-0.061 -0.037,-0.083c-0.024,-0.022 -0.063,-0.033 -0.116,-0.033l-0.227,0l0,0.237Z" style="fill:#ffee1d;fill-rule:nonzero;"/></g><g transform="matrix(6266,0,0,6266,14093.5,6266)"><path d="M0.045,-0.23l0.089,-0.008c0.005,0.036 0.014,0.065 0.03,0.088c0.015,0.023 0.039,0.042 0.072,0.056c0.032,0.014 0.069,0.021 0.11,0.021c0.036,0 0.068,-0.005 0.095,-0.016c0.028,-0.011 0.049,-0.025 0.062,-0.044c0.014,-0.019 0.02,-0.039 0.02,-0.061c0,-0.023 -0.006,-0.042 -0.019,-0.059c-0.013,-0.017 -0.035,-0.031 -0.065,-0.042c-0.019,-0.008 -0.061,-0.02 -0.127,-0.035c-0.066,-0.016 -0.112,-0.031 -0.138,-0.045c-0.034,-0.018 -0.06,-0.04 -0.077,-0.067c-0.016,-0.026 -0.025,-0.056 -0.025,-0.089c0,-0.036 0.011,-0.07 0.031,-0.101c0.021,-0.031 0.05,-0.055 0.09,-0.072c0.039,-0.016 0.083,-0.024 0.131,-0.024c0.053,-0 0.1,0.009 0.141,0.026c0.04,0.017 0.071,0.042 0.093,0.075c0.022,0.033 0.034,0.071 0.035,0.113l-0.091,0.007c-0.004,-0.046 -0.021,-0.08 -0.049,-0.103c-0.028,-0.023 -0.07,-0.035 -0.125,-0.035c-0.057,0 -0.099,0.011 -0.125,0.032c-0.026,0.021 -0.039,0.046 -0.039,0.076c-0,0.026 0.009,0.047 0.027,0.063c0.019,0.017 0.066,0.034 0.143,0.051c0.077,0.018 0.13,0.033 0.159,0.046c0.041,0.019 0.072,0.044 0.092,0.073c0.02,0.03 0.03,0.063 0.03,0.102c-0,0.038 -0.011,0.074 -0.033,0.108c-0.022,0.033 -0.053,0.059 -0.094,0.078c-0.041,0.019 -0.087,0.028 -0.138,0.028c-0.065,0 -0.119,-0.009 -0.163,-0.028c-0.044,-0.019 -0.078,-0.047 -0.103,-0.085c-0.025,-0.038 -0.038,-0.081 -0.039,-0.129Z" style="fill:#ffee1d;fill-rule:nonzero;"/></g><g transform="matrix(6266,0,0,6266,18271.5,6266)"><rect x="0.093" y="-0.716" width="0.095" height="0.716" style="fill:#ffee1d;fill-rule:nonzero;"/></g><g transform="matrix(6266,0,0,6266,20010.9,6266)"><path d="M0.048,-0.349c0,-0.118 0.032,-0.211 0.096,-0.279c0.064,-0.067 0.146,-0.101 0.247,-0.101c0.066,0 0.126,0.016 0.179,0.048c0.053,0.031 0.093,0.075 0.121,0.132c0.028,0.056 0.042,0.12 0.042,0.192c-0,0.073 -0.015,0.138 -0.044,0.195c-0.029,0.057 -0.071,0.101 -0.125,0.13c-0.053,0.029 -0.111,0.044 -0.173,0.044c-0.068,0 -0.128,-0.016 -0.181,-0.049c-0.053,-0.032 -0.093,-0.077 -0.121,-0.133c-0.027,-0.056 -0.041,-0.116 -0.041,-0.179Zm0.098,0.002c-0,0.086 0.023,0.154 0.07,0.204c0.046,0.049 0.104,0.074 0.174,0.074c0.071,0 0.13,-0.025 0.176,-0.075c0.046,-0.05 0.069,-0.121 0.069,-0.213c0,-0.059 -0.01,-0.11 -0.029,-0.153c-0.02,-0.043 -0.049,-0.077 -0.087,-0.101c-0.038,-0.024 -0.08,-0.036 -0.127,-0.036c-0.067,0 -0.125,0.023 -0.173,0.069c-0.049,0.046 -0.073,0.123 -0.073,0.231Z" style="fill:#ffee1d;fill-rule:nonzero;"/></g><g transform="matrix(6266,0,0,6266,24883.4,6266)"><path d="M0.076,-0l0,-0.716l0.097,0l0.376,0.562l0,-0.562l0.091,0l0,0.716l-0.097,-0l-0.376,-0.563l-0,0.563l-0.091,-0Z" style="fill:#ffee1d;fill-rule:nonzero;"/></g></g><path d="M223.483,131.93l-0,234.689l-65.104,0l0,-142.867l-22.003,0l-0,-50.165c11.342,-10.365 18.676,-24.251 22.003,-41.657l65.104,-0Z" style="fill-rule:nonzero;"/><rect x="245.638" y="303.84" width="48.771" height="62.779" style="fill-rule:nonzero;"/><path d="M471.497,219.352c-0.151,9.192 -1.587,17.797 -4.31,25.815c-2.722,8.019 -6.994,15.646 -12.816,22.883c-5.822,7.236 -10.926,12.956 -15.312,17.161c-4.386,4.205 -10.586,9.828 -18.601,16.869c-1.512,1.369 -2.646,2.346 -3.403,2.933l55.804,0l-0,61.606l-144.499,0l-7.486,-54.859c25.256,-17.601 44.121,-32.563 56.598,-44.884c12.476,-12.321 18.79,-24.153 18.941,-35.497l-0,-2.053c-0,-12.517 -3.025,-21.611 -9.074,-27.283c-6.049,-5.671 -14.064,-8.507 -24.045,-8.507c-9.981,-0 -20.416,2.249 -31.304,6.747l-15.199,-49.578c22.08,-12.517 44.839,-18.775 68.28,-18.775c24.952,-0 45.595,7.53 61.928,22.589c16.332,15.059 24.498,36.474 24.498,64.246l0,0.587Z" style="fill-rule:nonzero;"/><rect x="495.014" y="303.84" width="48.771" height="62.779" style="fill-rule:nonzero;"/><path d="M653.274,131.93l0,234.689l-65.103,0l-0,-142.867l-22.004,0l0,-50.165c11.342,-10.365 18.677,-24.251 22.004,-41.657l65.103,-0Z" style="fill-rule:nonzero;"/><path d="M785.902,218.472l-0,62.779l-30.851,-0l0,39.897l-48.771,0l0,-39.897l-30.85,-0l-0,-62.779l30.85,-0l0,-39.898l48.771,0l0,39.898l30.851,-0Z" style="fill-rule:nonzero;"/></g><g transform="matrix(1.15466,0,0,1.15293,-378.584,-268.038)"><g transform="matrix(0.788408,0,0,1,90.5372,0)"><path d="M456.669,869.351l-24.96,14.054l12.255,21.699l12.705,-7.083l-0,55.653l28.445,0l-0,-84.323l-28.445,0Z" style="fill:none;fill-rule:nonzero;stroke:#000;stroke-width:21.28px;stroke-linecap:square;stroke-miterlimit:2;"/><path d="M576.183,909.489c5.846,-6.746 8.769,-19.338 4.272,-27.208c-5.284,-9.444 -16.302,-14.391 -29.344,-14.391c-13.042,-0 -24.061,4.947 -29.345,14.391c-4.497,7.87 -1.574,20.462 4.273,27.208c-10.906,7.083 -13.38,20.912 -8.32,31.256c5.284,11.018 17.089,15.853 33.392,15.853c16.302,-0 28.107,-4.835 33.392,-15.853c5.059,-10.344 2.586,-24.173 -8.32,-31.256Zm-25.072,-23.835c6.745,-0 8.994,4.384 8.994,8.095c0,3.822 -2.249,8.657 -8.994,8.657c-6.746,-0 -8.995,-4.835 -8.995,-8.657c0,-3.711 2.249,-8.095 8.995,-8.095Zm-0,51.943c-7.533,-0 -10.119,-4.61 -10.119,-8.545c-0,-3.935 2.586,-8.995 10.119,-8.995c7.532,0 10.118,5.06 10.118,8.995c0,3.935 -2.586,8.545 -10.118,8.545Z" style="fill:none;fill-rule:nonzero;stroke:#000;stroke-width:21.28px;stroke-linecap:square;stroke-miterlimit:2;"/><path d="M616.658,869.351l-21.924,84.323l23.273,0l21.924,-84.323l-23.273,0Z" style="fill:none;fill-rule:nonzero;stroke:#000;stroke-width:21.28px;stroke-linecap:square;stroke-miterlimit:2;"/><path d="M671.412,869.351l-24.96,14.054l12.255,21.699l12.705,-7.083l-0,55.653l28.445,0l-0,-84.323l-28.445,0Z" style="fill:none;fill-rule:nonzero;stroke:#000;stroke-width:21.28px;stroke-linecap:square;stroke-miterlimit:2;"/><path d="M753.486,869.351l-24.959,14.054l12.255,21.699l12.704,-7.083l0,55.653l28.445,0l0,-84.323l-28.445,0Z" style="fill:none;fill-rule:nonzero;stroke:#000;stroke-width:21.28px;stroke-linecap:square;stroke-miterlimit:2;"/><path d="M831.401,869.351l-21.924,84.323l23.273,0l21.924,-84.323l-23.273,0Z" style="fill:none;fill-rule:nonzero;stroke:#000;stroke-width:21.28px;stroke-linecap:square;stroke-miterlimit:2;"/><path d="M900.658,931.413c8.095,-4.272 18.214,-11.356 23.498,-16.415c15.066,-14.841 7.533,-43.96 -17.764,-46.996c-16.752,-2.024 -29.119,1.574 -43.173,8.32l11.917,21.137c7.308,-3.71 14.729,-6.521 21.812,-6.521c7.308,-0 11.356,7.87 4.497,15.066c-14.391,15.178 -37.664,31.031 -37.664,31.031l7.758,16.639l62.061,0l0,-22.261l-32.942,0Z" style="fill:none;fill-rule:nonzero;stroke:#000;stroke-width:21.28px;stroke-linecap:square;stroke-miterlimit:2;"/><path d="M980.372,956.373c25.522,-0 36.877,-13.267 36.877,-41.487l0,-5.734c0,-28.22 -11.355,-41.487 -36.877,-41.487c-25.522,-0 -36.878,13.267 -36.878,41.487l0,5.734c0,28.22 11.356,41.487 36.878,41.487Zm-0,-23.386c-6.072,0 -8.657,-6.296 -8.657,-19.563l-0,-2.698c-0,-13.38 2.585,-19.676 8.657,-19.676c6.071,0 8.769,6.296 8.769,19.676l0,2.698c0,13.267 -2.698,19.563 -8.769,19.563Z" style="fill:none;fill-rule:nonzero;stroke:#000;stroke-width:21.28px;stroke-linecap:square;stroke-miterlimit:2;"/><path d="M1064.81,931.413c8.095,-4.272 18.214,-11.356 23.498,-16.415c15.066,-14.841 7.533,-43.96 -17.764,-46.996c-16.752,-2.024 -29.119,1.574 -43.173,8.32l11.917,21.137c7.308,-3.71 14.729,-6.521 21.812,-6.521c7.308,-0 11.356,7.87 4.497,15.066c-14.391,15.178 -37.664,31.031 -37.664,31.031l7.758,16.639l62.062,0l-0,-22.261l-32.943,0Z" style="fill:none;fill-rule:nonzero;stroke:#000;stroke-width:21.28px;stroke-linecap:square;stroke-miterlimit:2;"/><path d="M1144.07,956.373c22.711,-0 36.877,-12.03 35.753,-32.268c-0.45,-10.231 -7.983,-19.451 -17.202,-23.61l15.74,-16.303l-6.296,-14.841l-58.576,0l-0,20.35l27.321,0l-11.131,11.243c2.698,5.847 5.734,12.368 7.42,16.078c7.308,-3.373 14.279,-1.237 16.865,5.059c2.249,5.172 -0.562,11.018 -6.409,13.042c-5.734,2.136 -12.929,-0.674 -22.036,-9.332l-16.752,16.865c8.882,8.657 22.149,13.717 35.303,13.717Z" style="fill:none;fill-rule:nonzero;stroke:#000;stroke-width:21.28px;stroke-linecap:square;stroke-miterlimit:2;"/></g><g transform="matrix(0.788408,0,0,1,90.5372,0)"><g transform="matrix(112.431,0,0,112.431,427.886,953.674)"><path d="M0.256,-0.75l-0.222,0.125l0.109,0.193l0.113,-0.063l0,0.495l0.253,-0l0,-0.75l-0.253,0Z" style="fill:#fff;fill-rule:nonzero;"/></g><g transform="matrix(112.431,0,0,112.431,509.961,953.674)"><path d="M0.589,-0.393c0.052,-0.06 0.078,-0.172 0.038,-0.242c-0.047,-0.084 -0.145,-0.128 -0.261,-0.128c-0.116,0 -0.214,0.044 -0.261,0.128c-0.04,0.07 -0.014,0.182 0.038,0.242c-0.097,0.063 -0.119,0.186 -0.074,0.278c0.047,0.098 0.152,0.141 0.297,0.141c0.145,-0 0.25,-0.043 0.297,-0.141c0.045,-0.092 0.023,-0.215 -0.074,-0.278Zm-0.223,-0.212c0.06,0 0.08,0.039 0.08,0.072c-0,0.034 -0.02,0.077 -0.08,0.077c-0.06,-0 -0.08,-0.043 -0.08,-0.077c-0,-0.033 0.02,-0.072 0.08,-0.072Zm-0,0.462c-0.067,-0 -0.09,-0.041 -0.09,-0.076c-0,-0.035 0.023,-0.08 0.09,-0.08c0.067,0 0.09,0.045 0.09,0.08c-0,0.035 -0.023,0.076 -0.09,0.076Z" style="fill:#fff;fill-rule:nonzero;"/></g><g transform="matrix(112.431,0,0,112.431,592.035,953.674)"><path d="M0.219,-0.75l-0.195,0.75l0.207,-0l0.195,-0.75l-0.207,0Z" style="fill:#fff;fill-rule:nonzero;"/></g><g transform="matrix(112.431,0,0,112.431,642.629,953.674)"><path d="M0.256,-0.75l-0.222,0.125l0.109,0.193l0.113,-0.063l0,0.495l0.253,-0l0,-0.75l-0.253,0Z" style="fill:#fff;fill-rule:nonzero;"/></g><g transform="matrix(112.431,0,0,112.431,724.704,953.674)"><path d="M0.256,-0.75l-0.222,0.125l0.109,0.193l0.113,-0.063l0,0.495l0.253,-0l0,-0.75l-0.253,0Z" style="fill:#fff;fill-rule:nonzero;"/></g><g transform="matrix(112.431,0,0,112.431,806.778,953.674)"><path d="M0.219,-0.75l-0.195,0.75l0.207,-0l0.195,-0.75l-0.207,0Z" style="fill:#fff;fill-rule:nonzero;"/></g><g transform="matrix(112.431,0,0,112.431,857.372,953.674)"><path d="M0.385,-0.198c0.072,-0.038 0.162,-0.101 0.209,-0.146c0.134,-0.132 0.067,-0.391 -0.158,-0.418c-0.149,-0.018 -0.259,0.014 -0.384,0.074l0.106,0.188c0.065,-0.033 0.131,-0.058 0.194,-0.058c0.065,0 0.101,0.07 0.04,0.134c-0.128,0.135 -0.335,0.276 -0.335,0.276l0.069,0.148l0.552,0l0,-0.198l-0.293,0Z" style="fill:#fff;fill-rule:nonzero;"/></g><g transform="matrix(112.431,0,0,112.431,939.447,953.674)"><path d="M0.364,0.024c0.227,0 0.328,-0.118 0.328,-0.369l0,-0.051c0,-0.251 -0.101,-0.369 -0.328,-0.369c-0.227,-0 -0.328,0.118 -0.328,0.369l0,0.051c0,0.251 0.101,0.369 0.328,0.369Zm0,-0.208c-0.054,-0 -0.077,-0.056 -0.077,-0.174l0,-0.024c0,-0.119 0.023,-0.175 0.077,-0.175c0.054,0 0.078,0.056 0.078,0.175l0,0.024c0,0.118 -0.024,0.174 -0.078,0.174Z" style="fill:#fff;fill-rule:nonzero;"/></g><g transform="matrix(112.431,0,0,112.431,1021.52,953.674)"><path d="M0.385,-0.198c0.072,-0.038 0.162,-0.101 0.209,-0.146c0.134,-0.132 0.067,-0.391 -0.158,-0.418c-0.149,-0.018 -0.259,0.014 -0.384,0.074l0.106,0.188c0.065,-0.033 0.131,-0.058 0.194,-0.058c0.065,0 0.101,0.07 0.04,0.134c-0.128,0.135 -0.335,0.276 -0.335,0.276l0.069,0.148l0.552,0l0,-0.198l-0.293,0Z" style="fill:#fff;fill-rule:nonzero;"/></g><g transform="matrix(112.431,0,0,112.431,1103.6,953.674)"><path d="M0.36,0.024c0.202,0 0.328,-0.107 0.318,-0.287c-0.004,-0.091 -0.071,-0.173 -0.153,-0.21l0.14,-0.145l-0.056,-0.132l-0.521,0l0,0.181l0.243,0l-0.099,0.1c0.024,0.052 0.051,0.11 0.066,0.143c0.065,-0.03 0.127,-0.011 0.15,0.045c0.02,0.046 -0.005,0.098 -0.057,0.116c-0.051,0.019 -0.115,-0.006 -0.196,-0.083l-0.149,0.15c0.079,0.077 0.197,0.122 0.314,0.122Z" style="fill:#fff;fill-rule:nonzero;"/></g></g></g></g></svg>